<svg width="449" height="131" viewBox="0 0 449 131" fill="none" xmlns="http://www.w3.org/2000/svg">
<path d="M63.2443 37.885L63.2483 37.8778L63.2522 37.8705C64.2544 36.0045 64.7405 33.8762 64.7405 31.5135C64.7405 28.0601 63.807 25.1392 61.8698 22.8341C59.9679 20.5061 57.32 18.8129 53.9896 17.7206C50.73 16.565 46.9318 16 42.6148 16C38.4156 16 34.6167 16.601 31.2317 17.8215C27.7955 18.9947 25.0481 20.9745 23.0295 23.764C20.9728 26.5401 20 30.2374 20 34.7497V92.0194V93.0194H21H29.6068H30.6068V92.0194V34.7497C30.6068 32.0671 31.1676 30.1648 32.1476 28.903C33.2531 27.5652 34.676 26.6299 36.4477 26.097L36.4576 26.094L36.4674 26.0908C38.3822 25.4715 40.4294 25.1587 42.6148 25.1587C46.163 25.1587 48.9489 25.7638 51.0369 26.9003L51.0369 26.9003L51.0472 26.9058C52.0819 27.4533 52.8142 28.1414 53.2939 28.9563C53.7746 29.773 54.0359 30.7758 54.0359 32.0039C54.0359 33.5882 53.6297 34.8764 52.8609 35.9227L52.8505 35.9367L52.8407 35.9512C52.0613 37.0933 51.0308 38.162 49.7343 39.1524L49.7248 39.1596L49.7156 39.167C48.4107 40.2138 47.0732 41.2931 45.7033 42.4051C44.3128 43.5208 43.1318 44.8453 42.1617 46.3738L42.1528 46.3877L42.1445 46.402C41.1886 48.0239 40.7345 49.94 40.7345 52.1071C40.7345 53.9383 41.0866 55.6494 41.8018 57.2271C42.5201 58.8116 43.6839 60.3508 45.2479 61.8508L45.2639 61.8661L45.2806 61.8807C46.8971 63.2989 49.0939 64.8979 51.8534 66.6767L51.8558 66.6782C54.1804 68.1673 55.9554 69.474 57.2023 70.5992L57.2113 70.6073L57.2205 70.6152C58.5103 71.7237 59.3419 72.8134 59.7866 73.8723L59.7992 73.9023L59.8137 73.9314C60.3193 74.9453 60.5888 76.1601 60.5888 77.6039C60.5888 80.0068 59.8779 81.7837 58.5486 83.0609C57.2596 84.2995 55.0018 85.0374 51.515 85.0374C49.8985 85.0374 48.2448 84.8506 46.5524 84.4738C44.9147 84.0946 43.3773 83.5905 41.9385 82.9633C40.4666 82.3217 39.2004 81.6859 38.1348 81.0574L36.6267 80.1679V81.9187V89.6658V90.2238L37.1016 90.5168C38.9006 91.6269 41.0212 92.4792 43.4475 93.0874C45.8921 93.7002 48.6825 94 51.8084 94C55.4967 94 58.7909 93.4285 61.6715 92.2595C64.5872 91.0762 66.8731 89.2162 68.4908 86.6811C70.1909 84.1199 71 80.8732 71 77.0155C71 74.2858 70.5236 71.8752 69.5317 69.8152C68.5594 67.7957 67.1762 65.9636 65.3978 64.3177C63.6572 62.7067 61.5936 61.1063 59.2129 59.5148C56.8139 57.8895 55.007 56.6277 53.7854 55.7257C52.5999 54.7861 51.8669 54.0325 51.497 53.4625C51.1994 52.9039 51.0479 52.2942 51.0479 51.6168C51.0479 50.7281 51.3829 49.8852 52.1491 49.062L52.1601 49.0502L52.1706 49.0382C53.0303 48.053 54.1192 47.0519 55.4474 46.0372C56.8405 44.9729 58.2314 43.8107 59.62 42.551L59.6295 42.5424L59.6387 42.5335C61.0794 41.1578 62.2822 39.6076 63.2443 37.885Z" fill="#2F1C6A" stroke="#2F1C6A" stroke-width="2"/>
<path fill-rule="evenodd" clip-rule="evenodd" d="M92 101H64.799C77.1172 95.9606 86.9606 86.1172 92 73.799V101ZM92 9V36.201C86.9606 23.8828 77.1172 14.0394 64.799 9H92ZM0 73.799C5.03936 86.1172 14.8828 95.9606 27.201 101H0V73.799ZM27.201 9C14.8828 14.0394 5.03936 23.8828 0 36.201V9H27.201Z" fill="#2F1C6A"/>
<path d="M119.776 13.448C125.493 11.3146 130.656 10.376 135.264 10.632C139.957 10.888 144.139 12.0826 147.808 14.216C151.477 16.264 154.592 19.0373 157.152 22.536C159.797 26.0346 161.931 29.96 163.552 34.312C164.832 37.5546 165.813 40.968 166.496 44.552C167.179 48.136 167.563 51.72 167.648 55.304C167.819 58.8026 167.691 62.2586 167.264 65.672C166.923 69.0853 166.325 72.2426 165.472 75.144C164.96 77.1066 164.363 78.8986 163.68 80.52C162.997 82.1413 162.187 83.7626 161.248 85.384C159.115 89.0533 156.341 92.04 152.928 94.344C149.6 96.648 145.931 98.2693 141.92 99.208C139.189 99.8906 136.373 100.232 133.472 100.232C130.571 100.147 127.712 99.7626 124.896 99.08C122.08 98.312 119.349 97.2453 116.704 95.88C114.144 94.4293 111.797 92.6373 109.664 90.504C107.019 87.944 104.843 85 103.136 81.672C101.429 78.2586 100.107 74.7173 99.168 71.048C98.2293 67.2933 97.632 63.5386 97.376 59.784C97.12 56.0293 97.12 52.4453 97.376 49.032C97.632 45.8746 98.2293 42.504 99.168 38.92C100.192 35.336 101.643 31.88 103.52 28.552C105.397 25.224 107.659 22.2373 110.304 19.592C113.035 16.8613 116.192 14.8133 119.776 13.448ZM149.728 68.232C150.752 64.2213 151.179 59.6986 151.008 54.664C150.837 49.6293 150.027 44.8933 148.576 40.456C147.637 37.7253 146.443 35.336 144.992 33.288C143.627 31.1546 141.963 29.5333 140 28.424C138.123 27.3146 135.904 26.76 133.344 26.76C130.784 26.76 127.925 27.528 124.768 29.064C122.891 30.0026 121.269 31.2826 119.904 32.904C118.624 34.5253 117.557 36.36 116.704 38.408C115.936 40.456 115.296 42.5893 114.784 44.808C114.357 47.0266 114.101 49.16 114.016 51.208C113.845 53.4266 113.803 55.7733 113.888 58.248C113.973 60.6373 114.229 63.0693 114.656 65.544C115.168 67.9333 115.851 70.2373 116.704 72.456C117.557 74.5893 118.709 76.5093 120.16 78.216C122.379 80.776 124.939 82.568 127.84 83.592C130.827 84.5306 133.771 84.6586 136.672 83.976C141.365 82.952 144.949 79.8373 147.424 74.632C148.448 72.7546 149.216 70.6213 149.728 68.232Z" fill="#2F1C6A"/>
<path d="M237.896 71.176C238.067 73.9066 238.152 76.5093 238.152 78.984C238.152 81.3733 238.067 83.9333 237.896 86.664C237.896 87.688 237.896 88.84 237.896 90.12C237.896 91.4 237.811 92.6373 237.64 93.832C237.469 95.0266 237.171 96.136 236.744 97.16C236.317 98.184 235.677 98.9946 234.824 99.592C233.8 100.275 232.648 100.744 231.368 101C230.088 101.171 228.893 101.085 227.784 100.744C226.675 100.403 225.693 99.7626 224.84 98.824C224.072 97.8853 223.645 96.5626 223.56 94.856C223.304 90.9306 223.176 87.0053 223.176 83.08C223.176 81.1173 223.133 79.24 223.048 77.448C223.048 75.656 223.091 73.1386 223.176 69.896C223.176 68.2746 223.048 66.44 222.792 64.392C222.536 62.2586 221.896 60.7653 220.872 59.912C220.104 59.2293 219.251 58.8453 218.312 58.76C217.373 58.5893 216.435 58.6746 215.496 59.016C214.643 59.3573 213.875 59.9973 213.192 60.936C212.509 61.7893 212.04 62.8986 211.784 64.264C211.784 65.3733 211.741 66.5253 211.656 67.72C211.656 68.8293 211.699 69.896 211.784 70.92C211.869 73.6506 211.912 76.2533 211.912 78.728C211.912 81.1173 211.869 83.6773 211.784 86.408C211.699 87.5173 211.656 88.712 211.656 89.992C211.741 91.272 211.741 92.552 211.656 93.832C211.571 95.0266 211.315 96.136 210.888 97.16C210.547 98.184 209.907 98.9946 208.968 99.592C207.944 100.275 206.835 100.701 205.64 100.872C204.531 100.957 203.464 100.787 202.44 100.36C201.501 99.848 200.648 99.08 199.88 98.056C199.197 97.032 198.813 95.6666 198.728 93.96C198.557 91.9973 198.429 90.2053 198.344 88.584C198.344 86.8773 198.344 85.0853 198.344 83.208C198.344 81.2453 198.387 79.24 198.472 77.192C198.557 75.0586 198.515 73.0106 198.344 71.048C198.344 70.4506 198.301 69.768 198.216 69C198.216 68.1466 198.173 67.2933 198.088 66.44C198.088 65.5866 198.003 64.776 197.832 64.008C197.747 63.1546 197.576 62.472 197.32 61.96C196.637 60.7653 195.4 59.9973 193.608 59.656C191.901 59.3146 190.451 59.4426 189.256 60.04C188.061 60.6373 187.165 61.4053 186.568 62.344C185.971 63.2826 185.544 64.3066 185.288 65.416C185.032 66.5253 184.904 67.72 184.904 69C184.904 70.1946 184.904 71.3466 184.904 72.456C184.904 78.0026 184.904 82.824 184.904 86.92C184.989 90.9306 184.563 94.1733 183.624 96.648C183.197 97.928 182.301 98.9093 180.936 99.592C179.656 100.275 178.248 100.616 176.712 100.616C175.261 100.616 173.896 100.275 172.616 99.592C171.336 98.9093 170.483 97.8426 170.056 96.392C169.8 95.4533 169.544 94.1306 169.288 92.424C169.117 90.632 168.989 88.6693 168.904 86.536C168.819 84.4026 168.776 82.2693 168.776 80.136C168.776 77.9173 168.776 75.912 168.776 74.12V55.688C168.691 53.7253 168.648 51.592 168.648 49.288C168.648 46.984 168.989 44.8933 169.672 43.016C170.269 41.3946 171.208 40.3706 172.488 39.944C173.768 39.432 175.091 39.2186 176.456 39.304C177.992 39.304 179.187 39.7306 180.04 40.584C180.979 41.352 181.661 42.3333 182.088 43.528C182.515 44.6373 182.771 45.9173 182.856 47.368C182.941 48.7333 183.027 50.056 183.112 51.336C184.051 49.2026 185.16 47.4533 186.44 46.088C187.805 44.6373 189.725 43.6986 192.2 43.272C198.515 42.0773 203.549 43.6986 207.304 48.136C209.011 46.4293 211.187 45.0213 213.832 43.912C215.88 43.144 217.971 42.8026 220.104 42.888C222.237 42.888 224.243 43.272 226.12 44.04C228.083 44.808 229.832 45.9173 231.368 47.368C232.989 48.8186 234.269 50.568 235.208 52.616C236.488 55.3466 237.213 58.376 237.384 61.704C237.555 65.032 237.725 68.1893 237.896 71.176Z" fill="#2F1C6A"/>
<path d="M240.203 52.488C240.203 54.8773 240.203 57.5653 240.203 60.552C240.288 63.5386 240.331 66.6533 240.331 69.896C240.331 73.0533 240.331 76.2106 240.331 79.368C240.331 82.44 240.288 85.2986 240.203 87.944C240.118 89.224 239.99 90.632 239.819 92.168C239.648 93.6186 239.307 94.984 238.795 96.264C238.283 97.544 237.472 98.6106 236.363 99.464C235.339 100.232 233.931 100.573 232.139 100.488C229.494 100.317 227.574 99.1653 226.379 97.032C225.27 94.8986 224.63 91.912 224.459 88.072C224.459 86.1093 224.416 83.848 224.331 81.288C224.331 78.728 224.288 76.1253 224.203 73.48C224.203 70.8346 224.203 68.2746 224.203 65.8C224.203 63.24 224.203 60.936 224.203 58.888C224.203 57.6933 224.16 56.2426 224.075 54.536C224.075 52.8293 224.118 51.08 224.203 49.288C224.288 47.496 224.502 45.7893 224.843 44.168C225.184 42.4613 225.739 41.0533 226.507 39.944C227.104 39.2613 227.958 38.7493 229.067 38.408C230.176 37.9813 231.328 37.768 232.523 37.768C233.803 37.768 234.998 37.9813 236.107 38.408C237.302 38.8346 238.155 39.432 238.667 40.2C239.008 40.712 239.264 41.4373 239.435 42.376C239.606 43.3146 239.734 44.3813 239.819 45.576C239.99 46.6853 240.075 47.88 240.075 49.16C240.16 50.3546 240.203 51.464 240.203 52.488ZM235.339 26.632C232.694 27.3146 230.475 27.0586 228.683 25.864C226.976 24.584 225.91 22.7066 225.483 20.232C225.142 18.44 225.27 16.8613 225.867 15.496C226.464 14.1306 227.36 13.1066 228.555 12.424C229.75 11.656 231.115 11.3146 232.651 11.4C234.187 11.4853 235.723 12.0826 237.259 13.192C238.71 14.216 239.734 15.4106 240.331 16.776C241.014 18.1413 241.227 19.464 240.971 20.744C240.8 22.024 240.246 23.2186 239.307 24.328C238.368 25.352 237.046 26.12 235.339 26.632Z" fill="#2F1C6A"/>
<path d="M333.454 90.76C333.369 91.1866 333.283 91.6133 333.198 92.04C333.198 92.3813 333.198 92.7653 333.198 93.192L332.43 95.88C332.259 96.2213 332.131 96.4346 332.046 96.52L331.662 97.288C331.235 98.2266 330.467 98.9946 329.358 99.592C327.31 100.616 325.134 100.872 322.83 100.36C321.379 100.189 320.227 99.7626 319.374 99.08C318.521 98.4826 317.923 97.7573 317.582 96.904C317.241 96.0506 316.985 95.1973 316.814 94.344C316.558 93.4906 316.43 92.7226 316.43 92.04V20.36C316.43 19.7626 316.43 19.2506 316.43 18.824C316.515 18.312 316.601 17.8426 316.686 17.416C316.771 16.8186 316.857 16.3066 316.942 15.88C317.113 15.4533 317.283 14.984 317.454 14.472C317.71 13.6186 318.179 12.936 318.862 12.424C319.886 11.656 320.867 11.2293 321.806 11.144C322.403 10.9733 322.958 10.888 323.47 10.888C323.982 10.8026 324.579 10.76 325.262 10.76C326.457 10.76 327.822 11.1013 329.358 11.784C330.553 12.4666 331.406 13.4053 331.918 14.6C332.771 16.3066 333.198 17.8853 333.198 19.336C333.283 20.1893 333.326 21.4693 333.326 23.176C333.411 24.8826 333.454 26.1626 333.454 27.016V27.528C333.625 30.2586 333.71 32.904 333.71 35.464C333.71 37.9386 333.667 40.6693 333.582 43.656C333.582 46.5573 333.539 49.3733 333.454 52.104C333.454 54.7493 333.454 57.3946 333.454 60.04V86.92C333.454 87.2613 333.454 87.6026 333.454 87.944C333.539 88.2 333.582 88.4986 333.582 88.84C333.582 89.6933 333.539 90.3333 333.454 90.76Z" fill="#2F1C6A"/>
<path d="M350.842 43.144C353.658 41.7786 356.602 40.7973 359.674 40.2C362.746 39.6026 365.775 39.4746 368.762 39.816C371.834 40.1573 374.778 40.968 377.594 42.248C380.495 43.528 383.141 45.32 385.53 47.624C387.493 49.5866 389.199 51.976 390.65 54.792C392.101 57.5226 393.167 60.2106 393.85 62.856C395.301 67.5493 395.514 72.2853 394.49 77.064C393.466 81.8426 391.717 86.28 389.242 90.376C388.047 92.2533 386.554 93.96 384.762 95.496C383.055 96.9466 381.221 98.1413 379.258 99.08C376.698 100.275 373.925 101.085 370.938 101.512C367.951 102.024 365.05 102.152 362.234 101.896C357.114 101.64 352.591 100.36 348.666 98.056C344.826 95.752 341.711 92.808 339.322 89.224C337.018 85.64 335.482 81.5866 334.714 77.064C334.031 72.456 334.33 67.7626 335.61 62.984C336.975 57.864 338.938 53.7253 341.498 50.568C344.143 47.3253 347.258 44.8506 350.842 43.144ZM354.682 60.296C353.402 61.4906 352.421 62.984 351.738 64.776C351.055 66.568 350.629 68.4453 350.458 70.408C350.287 72.2853 350.415 74.2053 350.842 76.168C351.354 78.0453 352.122 79.752 353.146 81.288C353.999 82.568 355.535 83.6346 357.754 84.488C359.973 85.3413 362.277 85.8533 364.666 86.024C367.397 86.1946 369.786 85.4693 371.834 83.848C373.882 82.1413 375.418 80.0506 376.442 77.576C377.551 75.1013 378.063 72.4133 377.978 69.512C377.893 66.6106 377.125 63.9653 375.674 61.576C374.65 59.8693 373.199 58.632 371.322 57.864C369.53 57.0106 367.61 56.584 365.562 56.584C363.599 56.4986 361.637 56.7973 359.674 57.48C357.711 58.0773 356.047 59.016 354.682 60.296Z" fill="#2F1C6A"/>
<path d="M448.85 76.808C448.85 79.5386 448.765 82.4826 448.594 85.64C448.509 88.7973 448.381 91.7413 448.21 94.472C448.21 97.032 448.082 99.592 447.826 102.152C447.655 104.371 447.314 106.76 446.802 109.32C446.29 111.965 445.565 114.397 444.626 116.616C443.431 119.517 441.81 121.992 439.762 124.04C437.714 126.173 435.069 127.709 431.826 128.648C429.095 129.331 426.535 129.757 424.146 129.928C421.757 130.184 419.197 130.141 416.466 129.8C414.674 129.544 412.754 129.032 410.706 128.264C408.658 127.581 406.738 126.685 404.946 125.576C403.154 124.467 401.575 123.144 400.21 121.608C398.845 120.157 397.906 118.493 397.394 116.616C396.797 114.312 396.754 112.307 397.266 110.6C397.863 108.893 398.759 107.656 399.954 106.888C401.149 106.12 402.557 105.992 404.178 106.504C405.799 107.016 407.335 108.339 408.786 110.472C409.81 112.008 411.303 113.245 413.266 114.184C415.229 115.123 417.319 115.677 419.538 115.848C421.757 116.019 423.89 115.72 425.938 114.952C428.071 114.269 429.735 113.032 430.93 111.24C431.783 109.96 432.381 108.125 432.722 105.736C433.149 103.347 433.405 101 433.49 98.696C429.138 100.488 424.658 101.171 420.05 100.744C415.527 100.232 411.389 98.824 407.634 96.52C403.965 94.1306 400.978 90.9733 398.674 87.048C396.455 83.0373 395.517 78.5146 395.858 73.48C396.114 69.128 397.01 65.032 398.546 61.192C400.167 57.352 402.813 54.152 406.482 51.592C409.469 49.544 412.839 48.2213 416.594 47.624C420.349 46.9413 423.975 46.6 427.474 46.6C429.522 46.6 431.527 46.6 433.49 46.6C435.538 46.6 437.415 46.856 439.122 47.368C440.829 47.88 442.365 48.7333 443.73 49.928C445.095 51.1226 446.119 52.872 446.802 55.176C447.911 58.76 448.509 62.3013 448.594 65.8C448.765 69.2986 448.85 72.968 448.85 76.808ZM424.146 87.432C424.999 87.432 425.81 87.3466 426.578 87.176C427.431 87.0053 428.242 86.792 429.01 86.536C430.461 86.024 431.527 85.3413 432.21 84.488C432.978 83.6346 433.49 82.696 433.746 81.672C434.002 80.5626 434.087 79.368 434.002 78.088C434.002 76.808 434.002 75.4853 434.002 74.12C434.002 73.0106 433.959 71.7733 433.874 70.408C433.874 69.0426 433.789 67.7626 433.618 66.568C433.447 65.288 433.191 64.1786 432.85 63.24C432.509 62.3013 431.997 61.704 431.314 61.448C430.119 61.1066 428.754 60.8933 427.218 60.808C425.682 60.6373 424.146 60.6373 422.61 60.808C421.074 60.8933 419.581 61.192 418.13 61.704C416.765 62.1306 415.613 62.728 414.674 63.496C413.394 64.6053 412.413 65.9706 411.73 67.592C411.047 69.2133 410.621 70.92 410.45 72.712C410.365 74.504 410.493 76.2533 410.834 77.96C411.261 79.6666 411.986 81.2026 413.01 82.568C414.205 84.2746 415.826 85.512 417.874 86.28C419.922 87.048 422.013 87.432 424.146 87.432Z" fill="#2F1C6A"/>
<path d="M303.017 29.1126L303.021 29.1054L303.024 29.0981C304.309 26.713 304.936 23.9856 304.936 20.944C304.936 16.4921 303.73 12.7525 301.249 9.8088C298.803 6.82231 295.39 4.64058 291.074 3.22924C286.849 1.73453 281.913 1 276.288 1C270.821 1 265.885 1.78051 261.494 3.3601C257.051 4.87219 253.509 7.42037 250.906 11.0081C248.265 14.5627 247 19.3181 247 25.168V99.92V100.92H248H259.264H260.264V99.92V25.168C260.264 21.6276 261.006 19.0672 262.347 17.3466C263.835 15.5497 265.751 14.2946 268.127 13.5818L268.137 13.5789L268.147 13.5757C270.686 12.7567 273.398 12.344 276.288 12.344C280.964 12.344 284.666 13.1388 287.459 14.6549L287.459 14.6549L287.469 14.6604C288.866 15.3978 289.87 16.3331 290.531 17.4523C291.192 18.5732 291.544 19.9373 291.544 21.584C291.544 23.7065 290.997 25.4534 289.947 26.8788L289.937 26.8929L289.927 26.9073C288.886 28.4287 287.513 29.8466 285.794 31.1566L285.785 31.1637L285.775 31.1711C284.068 32.5372 282.318 33.9459 280.525 35.3971C278.732 36.832 277.208 38.5356 275.956 40.5031L275.947 40.5171L275.939 40.5313C274.721 42.5925 274.136 45.0378 274.136 47.824C274.136 50.1744 274.589 52.3649 275.506 54.3818C276.425 56.4055 277.922 58.3837 279.949 60.3226L279.965 60.338L279.981 60.3526C282.081 62.1897 284.942 64.2677 288.547 66.5852L288.55 66.5867C291.599 68.5349 293.938 70.2508 295.587 71.7353L295.596 71.7434L295.605 71.7513C297.318 73.2192 298.441 74.6781 299.046 76.1161L299.059 76.1461L299.074 76.1752C299.76 77.5481 300.12 79.1816 300.12 81.104C300.12 84.3044 299.168 86.7096 297.356 88.446C295.584 90.1443 292.531 91.112 287.936 91.112C285.796 91.112 283.608 90.8652 281.372 90.3686C279.211 89.8696 277.181 89.2058 275.279 88.3789C273.344 87.5377 271.675 86.7022 270.267 85.8741L268.76 84.9876V86.736V96.848V97.4068L269.236 97.6997C271.558 99.1288 274.303 100.23 277.453 101.018C280.623 101.81 284.248 102.2 288.32 102.2C293.115 102.2 297.385 101.459 301.111 99.951C304.872 98.4287 307.812 96.0402 309.893 92.7866C312.077 89.5068 313.128 85.3316 313.128 80.336C313.128 76.8077 312.511 73.7083 311.237 71.0693C309.982 68.4708 308.196 66.1099 305.894 63.9852C303.63 61.8954 300.943 59.8162 297.837 57.7458C294.693 55.6213 292.323 53.9702 290.719 52.7888C289.15 51.5489 288.156 50.5359 287.646 49.7473C287.228 48.9692 287.016 48.1205 287.016 47.184C287.016 45.937 287.491 44.765 288.539 43.6423L288.55 43.6306L288.561 43.6185C289.702 42.314 291.143 40.9935 292.894 39.6594C294.71 38.2759 296.524 36.7644 298.335 35.1255L298.344 35.117L298.354 35.1081C300.217 33.3334 301.772 31.3342 303.017 29.1126Z" fill="#2F1C6A" stroke="#2F1C6A" stroke-width="2"/>
</svg>
