<svg width="92" height="92" viewBox="0 0 92 92" fill="none" xmlns="http://www.w3.org/2000/svg">
<path d="M63.2443 28.885L63.2483 28.8778L63.2522 28.8705C64.2544 27.0045 64.7405 24.8762 64.7405 22.5135C64.7405 19.0601 63.807 16.1392 61.8698 13.8341C59.9679 11.5061 57.32 9.81291 53.9896 8.72061C50.73 7.56496 46.9318 7 42.6148 7C38.4156 7 34.6167 7.60097 31.2317 8.82154C27.7955 9.99468 25.0481 11.9745 23.0295 14.764C20.9728 17.5401 20 21.2374 20 25.7497V83.0194V84.0194H21H29.6068H30.6068V83.0194V25.7497C30.6068 23.0671 31.1676 21.1648 32.1476 19.903C33.2531 18.5652 34.676 17.6299 36.4477 17.097L36.4576 17.094L36.4674 17.0908C38.3822 16.4715 40.4294 16.1587 42.6148 16.1587C46.163 16.1587 48.9489 16.7638 51.0369 17.9003L51.0369 17.9003L51.0472 17.9058C52.0819 18.4533 52.8142 19.1414 53.2939 19.9563C53.7746 20.773 54.0359 21.7758 54.0359 23.0039C54.0359 24.5882 53.6297 25.8764 52.8609 26.9227L52.8505 26.9367L52.8407 26.9512C52.0613 28.0933 51.0308 29.162 49.7343 30.1524L49.7248 30.1596L49.7156 30.167C48.4107 31.2138 47.0732 32.2931 45.7033 33.4051C44.3128 34.5208 43.1318 35.8453 42.1617 37.3738L42.1528 37.3877L42.1445 37.402C41.1886 39.0239 40.7345 40.94 40.7345 43.1071C40.7345 44.9383 41.0866 46.6494 41.8018 48.2271C42.5201 49.8116 43.6839 51.3508 45.2479 52.8508L45.2639 52.8661L45.2806 52.8807C46.8971 54.2989 49.0939 55.8979 51.8534 57.6767L51.8558 57.6782C54.1804 59.1673 55.9554 60.474 57.2023 61.5992L57.2113 61.6073L57.2205 61.6152C58.5103 62.7237 59.3419 63.8134 59.7866 64.8723L59.7992 64.9023L59.8137 64.9314C60.3193 65.9453 60.5888 67.1601 60.5888 68.6039C60.5888 71.0068 59.8779 72.7837 58.5486 74.0609C57.2596 75.2995 55.0018 76.0374 51.515 76.0374C49.8985 76.0374 48.2448 75.8506 46.5524 75.4738C44.9147 75.0946 43.3773 74.5905 41.9385 73.9633C40.4666 73.3217 39.2004 72.6859 38.1348 72.0574L36.6267 71.1679V72.9187V80.6658V81.2238L37.1016 81.5168C38.9006 82.6269 41.0212 83.4792 43.4475 84.0874C45.8921 84.7002 48.6825 85 51.8084 85C55.4967 85 58.7909 84.4285 61.6715 83.2595C64.5872 82.0762 66.8731 80.2162 68.4908 77.6811C70.1909 75.1199 71 71.8732 71 68.0155C71 65.2858 70.5236 62.8752 69.5317 60.8152C68.5594 58.7957 67.1762 56.9636 65.3978 55.3177C63.6572 53.7067 61.5936 52.1063 59.2129 50.5148C56.8139 48.8895 55.007 47.6277 53.7854 46.7257C52.5999 45.7861 51.8669 45.0325 51.497 44.4625C51.1994 43.9039 51.0479 43.2942 51.0479 42.6168C51.0479 41.7281 51.3829 40.8852 52.1491 40.062L52.1601 40.0502L52.1706 40.0382C53.0303 39.053 54.1192 38.0519 55.4474 37.0372C56.8405 35.9729 58.2314 34.8107 59.62 33.551L59.6295 33.5424L59.6387 33.5335C61.0794 32.1578 62.2822 30.6076 63.2443 28.885Z" fill="black" stroke="black" stroke-width="2"/>
<path fill-rule="evenodd" clip-rule="evenodd" d="M92 92H64.799C77.1172 86.9606 86.9606 77.1172 92 64.799V92ZM92 0V27.201C86.9606 14.8828 77.1172 5.03936 64.799 0H92ZM0 64.799C5.03936 77.1172 14.8828 86.9606 27.201 92H0V64.799ZM27.201 0C14.8828 5.03936 5.03936 14.8828 0 27.201V0H27.201Z" fill="black"/>
</svg>
