<svg width="164" height="189" viewBox="0 0 164 189" fill="none" xmlns="http://www.w3.org/2000/svg">
<path fill-rule="evenodd" clip-rule="evenodd" d="M39.785 7.75C43.847 16.733 65.403 63.838 68.433 70.354C73.411 81.057 98.062 135.274 100.019 139.821L102.062 144.572L92.452 166.532C87.166 178.61 82.728 188.606 82.589 188.744C82.243 189.091 80.929 186.37 74.982 173C72.169 166.675 69.259 160.15 68.515 158.5C67.77 156.85 61.92 143.575 55.514 129C49.108 114.425 43.26 101.15 42.519 99.5C41.778 97.85 35.036 82.325 27.537 65C20.038 47.675 11.255 27.425 8.02 20C4.785 12.575 1.668 5.263 1.094 3.75L0.0499992 1H18.391H36.732L39.785 7.75ZM97 1.429C97 1.666 94.912 6.278 92.361 11.679C88.368 20.131 87.714 22.406 87.669 28C87.62 33.897 88.229 35.883 94.227 49.412L100.838 64.324L102.264 60.912C110.626 40.907 118.651 21.515 122.299 12.5L126.75 1.5L145.234 1.228L163.719 0.957001L151.767 28.728C125.775 89.122 119.004 104.314 117.171 106.352C113.07 110.912 104.631 112.43 99.2 109.585C96.239 108.034 91.227 102.917 88.832 99C87.359 96.591 54.848 27.279 53.058 22.731C52.575 21.504 50.129 16.112 47.623 10.75L43.066 1H70.033C84.865 1 97 1.193 97 1.429Z" fill="#2F1C6A"/>
</svg>
